<svg xmlns="http://www.w3.org/2000/svg" version="1.1" xmlns:xlink="http://www.w3.org/1999/xlink" xmlns:svgjs="http://svgjs.dev/svgjs" width="1500" height="1500" viewBox="0 0 1500 1500"><rect width="1500" height="1500" fill="#ffffff"></rect><g transform="matrix(0.6666666666666666,0,0,0.6666666666666666,249.39393939393938,438.58569500674764)"><svg viewBox="0 0 396 247" data-background-color="#000000" preserveAspectRatio="xMidYMid meet" height="935" width="1500" xmlns="http://www.w3.org/2000/svg" xmlns:xlink="http://www.w3.org/1999/xlink"><g id="tight-bounds" transform="matrix(1,0,0,1,0.2400000000000091,-0.09999999999999432)"><svg viewBox="0 0 395.52 247.2" height="247.2" width="395.52"><g><svg></svg></g><g><svg viewBox="0 0 395.52 247.2" height="247.2" width="395.52"><g transform="matrix(1,0,0,1,75.54432,82.94031509825356)"><svg viewBox="0 0 244.43135999999998 81.31936980349285" height="81.31936980349285" width="244.43135999999998"><g><svg viewBox="0 0 244.43135999999998 81.31936980349285" height="81.31936980349285" width="244.43135999999998"><g><svg viewBox="0 0 244.43135999999998 81.31936980349285" height="81.31936980349285" width="244.43135999999998"><g><svg viewBox="0 0 244.43135999999998 81.31936980349285" height="81.31936980349285" width="244.43135999999998"><g id="textblocktransform"><svg viewBox="0 0 244.43135999999998 81.31936980349285" height="81.31936980349285" width="244.43135999999998" id="textblock"><g><svg viewBox="0 0 244.43135999999998 43.85978234090342" height="43.85978234090342" width="244.43135999999998"><g transform="matrix(1,0,0,1,0,0)"><svg width="244.43135999999998" viewBox="0.4 -35 200.32999999999998 35.95" height="43.85978234090342" data-palette-color="#ffffff"><path d="M34.95-1.6L35-0.7 34.7 0 27.25 0 26.7-1.05Q26.8-4.7 26.88-8.88 26.95-13.05 26.95-16.7L26.95-16.7Q26.95-16.9 26.83-17.1 26.7-17.3 26.35-17.3L26.35-17.3 9.2-17.3Q8.55-17.3 8.55-16.7L8.55-16.7Q8.55-15 8.53-12.98 8.5-10.95 8.5-8.9L8.5-8.9Q8.5-6.75 8.55-4.98 8.6-3.2 8.8-1.3L8.8-1.3 4.2 0.1 3.9-0.15Q4.3-4.4 4.35-9.1 4.4-13.8 4.4-18.35L4.4-18.35Q4.4-21.45 4.38-24.58 4.35-27.7 4.1-30.8L4.1-30.8Q4.05-31.5 3.73-31.75 3.4-32 2.65-32.23 1.9-32.45 0.45-32.95L0.45-32.95 0.4-33.9 0.75-34.25 8.85-34.25 9.1-34Q8.8-32.3 8.65-29.88 8.5-27.45 8.47-24.8 8.45-22.15 8.45-19.85L8.45-19.85Q8.45-19.65 8.58-19.45 8.7-19.25 9.05-19.25L9.05-19.25 26.35-19.25Q26.75-19.25 26.85-19.45 26.95-19.65 26.95-19.85L26.95-19.85Q26.95-23.1 26.88-26.78 26.8-30.45 26.8-33.65L26.8-33.65 31.2-34.5 31.45-34.2Q31.1-29.65 31-25.15 30.9-20.65 30.9-16.1L30.9-16.1Q30.9-13.05 30.95-10.03 31-7 31.1-3.95L31.1-3.95Q31.1-3.3 31.63-2.83 32.15-2.35 32.88-2.1 33.6-1.85 34.2-1.73 34.8-1.6 34.95-1.6L34.95-1.6ZM49.05-16.55L49.05-16.55 48.95-16.15 62.1-1.35 62.1-0.9 57.15 0.4Q55.4-1.85 53.45-4.33 51.5-6.8 49.72-9.08 47.95-11.35 46.6-12.98 45.25-14.6 44.7-15.15L44.7-15.15Q44.25-15.6 43.7-15.6L43.7-15.6Q43.7-12 43.72-8.38 43.75-4.75 43.95-1.15L43.95-1.15 39.8 0.3 39.25-0.15Q39.55-5.6 39.62-11.05 39.7-16.5 39.7-21.95L39.7-21.95Q39.7-22.25 39.67-23.2 39.65-24.15 39.62-25.45 39.6-26.75 39.57-28.13 39.55-29.5 39.55-30.55L39.55-30.55Q39.55-31.35 38.67-31.85 37.8-32.35 36.87-32.58 35.95-32.8 35.7-32.8L35.7-32.8 35.75-33.65 36.05-33.95 49.65-33.95Q54.25-33.95 57.02-32.2 59.8-30.45 59.8-26.95L59.8-26.95Q59.8-23.5 58.35-21.3 56.9-19.1 54.47-18 52.05-16.9 49.05-16.55ZM43.65-18.5L43.65-18.5Q43.65-18.3 43.75-18.03 43.85-17.75 44.1-17.75L44.1-17.75Q46.85-17.75 49.32-18.6 51.8-19.45 53.35-21.33 54.9-23.2 54.9-26.15L54.9-26.15Q54.9-28.55 53.62-29.83 52.35-31.1 50.42-31.55 48.5-32 46.55-32L46.55-32 44.55-32Q44-32 43.95-30.7L43.95-30.7Q43.9-29.75 43.87-28.25 43.85-26.75 43.8-25.1 43.75-23.45 43.72-21.98 43.7-20.5 43.67-19.55 43.65-18.6 43.65-18.5ZM72.04-15.9L72.04-15.9Q72.04-20.75 73.19-24.18 74.34-27.6 77.09-30.6L77.09-30.6Q78.69-32.3 80.84-33.25 82.99-34.2 85.42-34.6 87.84-35 90.14-35L90.14-35Q92.94-35 95.74-34.13 98.54-33.25 100.54-31.2L100.54-31.2Q102.09-29.65 103.02-27.48 103.94-25.3 104.34-22.93 104.74-20.55 104.74-18.2L104.74-18.2Q104.74-15.75 104.47-13.2 104.19-10.65 102.69-7.6L102.69-7.6Q101.49-5.15 99.04-3.23 96.59-1.3 93.27-0.2 89.94 0.9 85.99 0.9L85.99 0.9Q82.14 0.9 79.47-0.55 76.79-2 75.17-4.42 73.54-6.85 72.79-9.83 72.04-12.8 72.04-15.9ZM76.69-17.4L76.69-17.4Q76.69-13.9 77.52-10.73 78.34-7.55 80.64-5L80.64-5Q82.89-2.5 85.04-1.83 87.19-1.15 88.64-1.15L88.64-1.15Q91.74-1.15 93.92-2.53 96.09-3.9 97.44-6.18 98.79-8.45 99.42-11.23 100.04-14 100.04-16.8L100.04-16.8Q100.04-19.45 99.42-22.3 98.79-25.15 97.44-27.58 96.09-30 93.89-31.5 91.69-33 88.54-33L88.54-33Q85.29-33 83.04-31.65 80.79-30.3 79.39-28.05 77.99-25.8 77.34-23.03 76.69-20.25 76.69-17.4ZM106.99-21.4L107.34-21.7 112.59-21.7 112.89-22Q112.89-23.3 113.04-25.03 113.19-26.75 113.79-28.1L113.79-28.1Q114.94-30.75 117.02-32.1 119.09-33.45 121.44-33.45L121.44-33.45Q123.49-33.45 124.54-32.6 125.59-31.75 126.09-30.75L126.09-30.75 123.19-28.05 122.59-28.25Q122.49-28.8 122.27-29.55 122.04-30.3 121.47-30.88 120.89-31.45 119.69-31.45L119.69-31.45Q118.64-31.45 117.97-30.15 117.29-28.85 116.99-26.7 116.69-24.55 116.69-22L116.69-22 116.89-21.7 123.09-21.7 123.34-21.35 122.99-20.25 122.64-19.95 116.89-19.95 116.59-19.65 116.59-14.1Q116.59-10.6 116.72-7.13 116.84-3.65 117.09-0.6L117.09-0.6 113.14 0.6 112.29 0.05Q112.54-3.65 112.74-7.2 112.94-10.75 112.94-14.15L112.94-14.15 112.94-19.55 112.64-19.95 107.04-19.95 106.79-20.3 106.99-21.4ZM123.44-21.4L123.79-21.7 129.04-21.7 129.34-22Q129.34-23.3 129.49-25.03 129.64-26.75 130.24-28.1L130.24-28.1Q131.39-30.75 133.46-32.1 135.54-33.45 137.89-33.45L137.89-33.45Q139.94-33.45 140.99-32.6 142.04-31.75 142.54-30.75L142.54-30.75 139.64-28.05 139.04-28.25Q138.94-28.8 138.71-29.55 138.49-30.3 137.91-30.88 137.34-31.45 136.14-31.45L136.14-31.45Q135.09-31.45 134.41-30.15 133.74-28.85 133.44-26.7 133.14-24.55 133.14-22L133.14-22 133.34-21.7 139.54-21.7 139.79-21.35 139.44-20.25 139.09-19.95 133.34-19.95 133.04-19.65 133.04-14.1Q133.04-10.6 133.16-7.13 133.29-3.65 133.54-0.6L133.54-0.6 129.59 0.6 128.74 0.05Q128.99-3.65 129.19-7.2 129.39-10.75 129.39-14.15L129.39-14.15 129.39-19.55 129.09-19.95 123.49-19.95 123.24-20.3 123.44-21.4ZM150.04-31.25L150.04-31.25Q149.99-30 149.11-29.23 148.24-28.45 147.04-28.45L147.04-28.45Q145.84-28.45 144.99-29.3 144.14-30.15 144.14-31.35L144.14-31.35Q144.14-32.65 145.19-33.4 146.24-34.15 147.34-34.15L147.34-34.15Q148.64-34.15 149.34-33.27 150.04-32.4 150.04-31.25ZM149.34-19.6L149.34-19.6 148.94-9.1Q148.94-6.35 149.39-4.8 149.84-3.25 151.14-3.25L151.14-3.25Q152.59-3.25 153.66-3.93 154.74-4.6 155.74-5.5L155.74-5.5 156.39-5 156.39-4.45Q155.54-3.35 154.41-2.23 153.29-1.1 152.01-0.35 150.74 0.4 149.34 0.4L149.34 0.4Q148.29 0.4 147.36 0.03 146.44-0.35 145.89-1.55 145.34-2.75 145.34-5.2L145.34-5.2 145.64-16.25Q145.64-18.2 145.26-19.35 144.89-20.5 143.89-20.5L143.89-20.5Q143.09-20.5 141.94-19.98 140.79-19.45 139.89-18.9L139.89-18.9 139.24-19.8Q140.94-21.15 142.86-22.35 144.79-23.55 146.24-23.55L146.24-23.55Q147.94-23.55 148.64-22.4 149.34-21.25 149.34-19.6ZM177.13-5.8L177.58-5.7 178.13-4.8Q175.83-2.5 173.06-0.78 170.28 0.95 166.93 0.95L166.93 0.95Q163.88 0.95 162.13-0.18 160.38-1.3 159.56-3.1 158.73-4.9 158.51-6.95 158.28-9 158.28-10.85L158.28-10.85Q158.28-14.6 159.91-17.53 161.53-20.45 164.38-22.1 167.23-23.75 170.93-23.75L170.93-23.75Q173.38-23.75 174.96-22.38 176.53-21 176.73-18.85L176.73-18.85 174.03-16.2 173.18-16.5Q172.83-19 171.68-20.4 170.53-21.8 168.93-21.8L168.93-21.8Q166.83-21.8 165.38-20.38 163.93-18.95 163.18-16.78 162.43-14.6 162.43-12.4L162.43-12.4Q162.43-10.8 162.73-9.05 163.03-7.3 163.78-5.78 164.53-4.25 165.91-3.3 167.28-2.35 169.48-2.35L169.48-2.35Q171.68-2.35 173.58-3.38 175.48-4.4 177.13-5.8L177.13-5.8ZM199.48-15.95L199.48-15.95 185.38-9.85Q185.53-8.3 186.21-6.65 186.88-5 188.26-3.9 189.63-2.8 191.83-2.8L191.83-2.8Q193.88-2.8 195.86-3.85 197.83-4.9 199.53-6.2L199.53-6.2 200.08-6.1 200.73-5.2Q199.18-3.75 197.36-2.43 195.53-1.1 193.51-0.25 191.48 0.6 189.33 0.6L189.33 0.6Q186.83 0.6 185.21-0.45 183.58-1.5 182.68-3.23 181.78-4.95 181.41-7.08 181.03-9.2 181.03-11.3L181.03-11.3Q181.03-13.5 181.58-15.6 182.13-17.7 183.58-19.4L183.58-19.4Q185.43-21.55 188.01-22.73 190.58-23.9 193.43-23.9L193.43-23.9Q196.68-23.9 198.61-21.9 200.53-19.9 200.53-17L200.53-17Q200.53-16.55 200.21-16.35 199.88-16.15 199.48-15.95ZM187.48-19.8L187.48-19.8Q186.03-18.25 185.61-16.55 185.18-14.85 185.18-13L185.18-13Q185.18-12.8 185.21-12.58 185.23-12.35 185.28-12.1L185.28-12.1 185.48-11.9 195.58-15.9Q195.83-16 196.03-16.3 196.23-16.6 196.23-17.2L196.23-17.2Q196.23-18.25 195.68-19.35 195.13-20.45 194.11-21.18 193.08-21.9 191.68-21.9L191.68-21.9Q190.43-21.9 189.36-21.35 188.28-20.8 187.48-19.8Z" opacity="1" transform="matrix(1,0,0,1,0,0)" fill="#000000" class="wordmark-text-0" data-fill-palette-color="primary" id="text-0"></path></svg></g></svg></g><g transform="matrix(1,0,0,1,0,54.21402431681454)"><svg viewBox="0 0 244.43135999999998 27.10534548667831" height="27.10534548667831" width="244.43135999999998"><g transform="matrix(1,0,0,1,0,0)"><svg width="244.43135999999998" viewBox="2.3 -34.85 449.09 49.8" height="27.10534548667831" data-palette-color="#81848a"><path d="M39.45-13.45L39.45-1.5Q39.45-1.25 39.83-1.1 40.2-0.95 40.6-0.95L40.6-0.95 40.6 0 31.8 0 31.8-0.95Q32.2-0.95 32.58-1.1 32.95-1.25 32.95-1.5L32.95-1.5 32.95-11.9Q32.95-18.1 28.85-18.1L28.85-18.1Q26.85-18.1 25.75-16.45 24.65-14.8 24.65-11.5L24.65-11.5 24.65-1.5Q24.65-1.25 25.03-1.1 25.4-0.95 25.8-0.95L25.8-0.95 25.8 0 17.05 0 17.05-0.95Q17.45-0.95 17.82-1.1 18.2-1.25 18.2-1.5L18.2-1.5 18.2-11.9Q18.2-14.65 17.35-16.38 16.5-18.1 14.2-18.1L14.2-18.1Q12.4-18.1 11.33-16.78 10.25-15.45 10.05-12.8L10.05-12.8 10.05-1.5Q10.05-1.25 10.45-1.1 10.85-0.95 11.2-0.95L11.2-0.95 11.2 0 2.3 0 2.3-0.95Q2.65-0.95 3.05-1.1 3.45-1.25 3.45-1.5L3.45-1.5 3.45-21.5Q3.45-21.75 3.08-21.9 2.7-22.05 2.35-22.05L2.35-22.05 2.35-23 10.05-23 10.05-21.65Q12.05-23.5 15.15-23.5L15.15-23.5Q17.95-23.5 19.98-22.43 22-21.35 23.15-19.45L23.15-19.45Q24.05-21.3 25.93-22.4 27.8-23.5 30.15-23.5L30.15-23.5Q34.85-23.5 37.15-20.7 39.45-17.9 39.45-13.45L39.45-13.45ZM90.55-23L90.55-22.05Q90.2-22.05 89.82-21.9 89.45-21.75 89.45-21.5L89.45-21.5 89.45-1.5Q89.45-1.25 89.82-1.1 90.2-0.95 90.55-0.95L90.55-0.95 90.55 0 83.15 0 83.15-2.75Q80 0.65 75.2 0.65L75.2 0.65Q71.55 0.65 68.77-0.83 66-2.3 64.47-5.05 62.95-7.8 62.95-11.45L62.95-11.45Q62.95-15 64.62-17.78 66.3-20.55 69.1-22.08 71.9-23.6 75.2-23.6L75.2-23.6Q80-23.6 83.15-19.9L83.15-19.9 83.15-23 90.55-23ZM75.95-4.65Q78-4.65 79.62-5.58 81.25-6.5 82.15-8.03 83.05-9.55 83.05-11.3L83.05-11.3Q83.05-14.3 81.07-16.25 79.1-18.2 75.95-18.2L75.95-18.2Q72.9-18.2 70.92-16.3 68.95-14.4 68.95-11.45L68.95-11.45Q68.95-8.35 70.97-6.5 73-4.65 75.95-4.65L75.95-4.65ZM138.25-13.45L138.25-1.5Q138.25-1.25 138.62-1.1 139-0.95 139.4-0.95L139.4-0.95 139.4 0 130.6 0 130.6-0.95Q131-0.95 131.37-1.1 131.75-1.25 131.75-1.5L131.75-1.5 131.75-11.9Q131.75-14.45 130.5-16.28 129.25-18.1 126.75-18.1L126.75-18.1Q124.2-18.1 122.62-16.4 121.05-14.7 121.05-11.5L121.05-11.5 121.05-1.5Q121.05-1.25 121.42-1.1 121.8-0.95 122.2-0.95L122.2-0.95 122.2 0 113.45 0 113.45-0.95Q113.85-0.95 114.22-1.1 114.6-1.25 114.6-1.5L114.6-1.5 114.6-21.5Q114.6-21.75 114.22-21.9 113.85-22.05 113.5-22.05L113.5-22.05 113.5-23 121.05-23 121.05-20.95Q122.35-22.15 124.12-22.83 125.9-23.5 127.75-23.5L127.75-23.5Q130.95-23.5 133.32-22.15 135.7-20.8 136.97-18.53 138.25-16.25 138.25-13.45L138.25-13.45ZM189.35-23L189.35-22.05Q189-22.05 188.62-21.9 188.25-21.75 188.25-21.5L188.25-21.5 188.25-1.5Q188.25-1.25 188.62-1.1 189-0.95 189.35-0.95L189.35-0.95 189.35 0 181.95 0 181.95-2.75Q178.8 0.65 174 0.65L174 0.65Q170.35 0.65 167.57-0.83 164.8-2.3 163.27-5.05 161.75-7.8 161.75-11.45L161.75-11.45Q161.75-15 163.42-17.78 165.1-20.55 167.9-22.08 170.7-23.6 174-23.6L174-23.6Q178.8-23.6 181.95-19.9L181.95-19.9 181.95-23 189.35-23ZM174.75-4.65Q176.8-4.65 178.42-5.58 180.05-6.5 180.95-8.03 181.85-9.55 181.85-11.3L181.85-11.3Q181.85-14.3 179.87-16.25 177.9-18.2 174.75-18.2L174.75-18.2Q171.7-18.2 169.72-16.3 167.75-14.4 167.75-11.45L167.75-11.45Q167.75-8.35 169.77-6.5 171.8-4.65 174.75-4.65L174.75-4.65ZM231.65-23L239-23 239-22.05Q238.65-22.05 238.27-21.9 237.9-21.75 237.9-21.5L237.9-21.5 237.95 1.85Q237.95 8.1 234.35 11.53 230.75 14.95 224.55 14.95L224.55 14.95Q222 14.95 219.15 13.53 216.3 12.1 213.9 9.3L213.9 9.3Q213.85 9.15 213.6 9.15L213.6 9.15Q213.2 9.15 212.75 9.5L212.75 9.5 212.2 8.75 218.45 3.8 219.05 4.55Q218.8 4.75 218.57 5.1 218.35 5.45 218.5 5.7L218.5 5.7Q219.75 7.45 221.2 8.3 222.65 9.15 224.7 9.15L224.7 9.15Q227.95 9.15 229.8 7.58 231.65 6 231.65 2.8L231.65 2.8 231.65-1.75Q228.5 0.7 224.4 0.7L224.4 0.7Q220.7 0.7 217.82-0.83 214.95-2.35 213.32-5.13 211.7-7.9 211.7-11.5L211.7-11.5Q211.7-15.1 213.4-17.82 215.1-20.55 218-22.03 220.9-23.5 224.4-23.5L224.4-23.5Q228.6-23.5 231.65-21.2L231.65-21.2 231.65-23ZM224.7-4.65Q228.1-4.65 229.95-6.48 231.8-8.3 231.8-11.3L231.8-11.3Q231.8-14.3 229.8-16.25 227.8-18.2 224.7-18.2L224.7-18.2Q221.7-18.2 219.72-16.3 217.75-14.4 217.75-11.4L217.75-11.4Q217.75-8.3 219.75-6.48 221.75-4.65 224.7-4.65L224.7-4.65ZM273.74-24.05Q277.59-24.05 280.39-22.38 283.19-20.7 284.64-17.85 286.09-15 286.09-11.55L286.09-11.55Q286.09-10.5 285.94-9.45L285.94-9.45 267.64-9.45Q267.84-7.05 269.74-5.7 271.64-4.35 274.29-4.35L274.29-4.35Q276.09-4.35 277.32-4.85 278.54-5.35 279.49-6.35L279.49-6.35Q279.59-6.55 279.59-6.6L279.59-6.6Q279.59-6.8 279.44-7.03 279.29-7.25 279.14-7.35L279.14-7.35 279.74-8.1 285.29-3.75 284.74-3Q283.99-3.45 283.69-3.1L283.69-3.1Q280.19 1.1 274.29 1.1L274.29 1.1Q270.49 1.1 267.59-0.58 264.69-2.25 263.12-5.08 261.54-7.9 261.54-11.35L261.54-11.35Q261.54-15 263.09-17.9 264.64-20.8 267.42-22.43 270.19-24.05 273.74-24.05L273.74-24.05ZM267.69-14.1L280.09-14.1Q279.89-16.15 278.02-17.57 276.14-19 273.79-19L273.79-19Q271.44-19 269.74-17.57 268.04-16.15 267.69-14.1L267.69-14.1ZM345.54-27.2Q343.94-27.2 342.82-28.3 341.69-29.4 341.69-31.05L341.69-31.05Q341.69-32.6 342.82-33.73 343.94-34.85 345.54-34.85L345.54-34.85Q347.14-34.85 348.24-33.73 349.34-32.6 349.34-31.05L349.34-31.05Q349.34-29.4 348.24-28.3 347.14-27.2 345.54-27.2L345.54-27.2ZM342.29-21.5Q342.29-21.75 341.92-21.9 341.54-22.05 341.19-22.05L341.19-22.05 341.19-23 349.79-23 349.79-22.05Q349.44-22.05 349.07-21.9 348.69-21.75 348.69-21.5L348.69-21.5 348.69-1.5Q348.69-1.25 349.07-1.1 349.44-0.95 349.79-0.95L349.79-0.95 349.79 0 341.19 0 341.19-0.95Q341.54-0.95 341.92-1.1 342.29-1.25 342.29-1.5L342.29-1.5 342.29-21.5ZM385.84-24L386.79-24 386.79-16.4 385.84-16.4Q385.84-16.75 385.69-17.07 385.54-17.4 385.29-17.4L385.29-17.4 382.04-17.4 382.04-1.5Q382.04-1.25 382.39-1.1 382.74-0.95 383.09-0.95L383.09-0.95 383.09 0 374.94 0 374.94-0.95Q375.29-0.95 375.64-1.1 375.99-1.25 375.99-1.5L375.99-1.5 375.99-17.4 373.59-17.4Q373.34-17.4 373.19-17.07 373.04-16.75 373.04-16.4L373.04-16.4 372.09-16.4 372.09-24 373.04-24Q373.04-23.65 373.19-23.33 373.34-23 373.59-23L373.59-23 375.99-23 375.99-28.85Q375.99-29.1 375.64-29.25 375.29-29.4 374.94-29.4L374.94-29.4 374.94-30.35 383.09-30.35 383.09-29.4Q382.74-29.4 382.39-29.25 382.04-29.1 382.04-28.85L382.04-28.85 382.04-23 385.29-23Q385.54-23 385.69-23.33 385.84-23.65 385.84-24L385.84-24ZM412.89 0.55Q411.04 0.55 409.81-0.68 408.59-1.9 408.59-3.75L408.59-3.75Q408.59-5.5 409.84-6.73 411.09-7.95 412.89-7.95L412.89-7.95Q414.64-7.95 415.86-6.73 417.09-5.5 417.09-3.75L417.09-3.75Q417.09-1.9 415.86-0.68 414.64 0.55 412.89 0.55L412.89 0.55ZM447.19 0.55Q445.34 0.55 444.11-0.68 442.89-1.9 442.89-3.75L442.89-3.75Q442.89-5.5 444.14-6.73 445.39-7.95 447.19-7.95L447.19-7.95Q448.94-7.95 450.16-6.73 451.39-5.5 451.39-3.75L451.39-3.75Q451.39-1.9 450.16-0.68 448.94 0.55 447.19 0.55L447.19 0.55Z" opacity="1" transform="matrix(1,0,0,1,0,0)" fill="#000000" class="slogan-text-1" data-fill-palette-color="secondary" id="text-1"></path></svg></g></svg></g></svg></g></svg></g><g></g></svg></g></svg></g></svg></g><g><path d="M86.7 72.586A122.216 122.216 0 0 1 308.82 72.586L304.864 72.586A118.26 118.26 0 0 0 90.656 72.586L86.7 72.586M86.7 174.614A122.216 122.216 0 0 0 308.82 174.614L304.864 174.614A118.26 118.26 0 0 1 90.656 174.614L86.7 174.614" fill="#000000" stroke="transparent" data-fill-palette-color="tertiary"></path></g></svg></g><defs></defs></svg><rect width="395.52" height="247.2" fill="none" stroke="none" visibility="hidden"></rect></g></svg></g></svg>